<svg height="430pt" viewBox="-35 0 430 430.44078" width="430pt" xmlns="http://www.w3.org/2000/svg"><path d="m70.570312 430.441406c37.628907.132813 68.660157-29.441406 70.339844-67.03125.082032-.398437.132813-.800781.15625-1.207031v-280.761719l173-28.207031v152.117187c-28.824218-11.113281-61.523437-2.179687-80.691406 22.042969-19.171875 24.222657-20.347656 58.101563-2.910156 83.597657 17.441406 25.496093 49.441406 36.679687 78.964844 27.59375 29.523437-9.082032 49.703124-36.320313 49.796874-67.210938l.714844-263.351562c.007813-2.351563-1.019531-4.589844-2.8125-6.113282-1.792968-1.527344-4.164062-2.1875-6.484375-1.804687l-248.933593 40.789062c-3.855469.636719-6.675782 3.984375-6.644532 7.894531v245.160157c-26.402344-9.757813-56.078125-2.859375-75.464844 17.539062-19.390624 20.402344-24.773437 50.386719-13.6875 76.257813 11.082032 25.871094 36.503907 42.660156 64.652344 42.695312zm0 0"/></svg>